<?xml version="1.0" encoding="UTF-8" standalone="no"?>
<svg
   xmlns:dc="http://purl.org/dc/elements/1.1/"
   xmlns:cc="http://creativecommons.org/ns#"
   xmlns:rdf="http://www.w3.org/1999/02/22-rdf-syntax-ns#"
   xmlns:svg="http://www.w3.org/2000/svg"
   xmlns="http://www.w3.org/2000/svg"
   xmlns:sodipodi="http://sodipodi.sourceforge.net/DTD/sodipodi-0.dtd"
   xmlns:inkscape="http://www.inkscape.org/namespaces/inkscape"
   width="600"
   height="371"
   style="overflow: hidden; "
   id="svg2"
   version="1.1"
   inkscape:version="0.48.3.1 r9886"
   sodipodi:docname="chart1.svg"
   inkscape:export-filename="/home/cr59/.gvfs/SFTP for cr59 on webdevnd51.cc.le.ac.uk/srv/www/htdocs/clearingviz/chart1.png"
   inkscape:export-xdpi="120.08086"
   inkscape:export-ydpi="120.08086">
  <metadata
     id="metadata218">
    <rdf:RDF>
      <cc:Work
         rdf:about="">
        <dc:format>image/svg+xml</dc:format>
        <dc:type
           rdf:resource="http://purl.org/dc/dcmitype/StillImage" />
        <dc:title></dc:title>
      </cc:Work>
    </rdf:RDF>
  </metadata>
  <sodipodi:namedview
     pagecolor="#ffffff"
     bordercolor="#666666"
     borderopacity="1"
     objecttolerance="10"
     gridtolerance="10"
     guidetolerance="10"
     inkscape:pageopacity="0"
     inkscape:pageshadow="2"
     inkscape:window-width="1680"
     inkscape:window-height="975"
     id="namedview216"
     showgrid="true"
     borderlayer="true"
     inkscape:snap-bbox="true"
     inkscape:zoom="1.9916667"
     inkscape:cx="299.49791"
     inkscape:cy="185.5"
     inkscape:window-x="0"
     inkscape:window-y="24"
     inkscape:window-maximized="1"
     inkscape:current-layer="svg2">
    <inkscape:grid
       type="xygrid"
       id="grid3195"
       empspacing="5"
       visible="true"
       enabled="true"
       snapvisiblegridlinesonly="true"
       spacingx="5px"
       spacingy="5px" />
  </sodipodi:namedview>
  <defs
     id="defs">
    <clipPath
       id="_ABSTRACT_RENDERER_ID_154">
      <rect
         x="115"
         y="71"
         width="371"
         height="229"
         id="rect6" />
    </clipPath>
  </defs>
  <rect
     style="fill:#ffffff;fill-opacity:0;stroke:none"
     id="rect64"
     height="229"
     width="371"
     y="68.5"
     x="110.5" />
  <g
     id="g68"
     transform="matrix(1.0781671,0,0,1,-13.489216,-2.4999997)"
     style="fill:#cccccf;fill-opacity:1;stroke-width:0.96306801;stroke-miterlimit:4;stroke-dasharray:none">
    <path
       style="fill:#cccccf;fill-opacity:1;stroke:none"
       d="m 115,242 371,0 0,1 -371,0 z"
       id="rect72"
       inkscape:connector-curvature="0" />
    <path
       style="fill:#cccccf;fill-opacity:1;stroke:none"
       d="m 115,185 371,0 0,1 -371,0 z"
       id="rect74"
       inkscape:connector-curvature="0" />
    <path
       style="fill:#cccccf;fill-opacity:1;stroke:none"
       d="m 115,128 371,0 0,1 -371,0 z"
       id="rect76"
       inkscape:connector-curvature="0" />
    <path
       style="fill:#cccccf;fill-opacity:1;stroke:none"
       d="m 115,71 371,0 0,1 -371,0 z"
       id="rect78"
       inkscape:connector-curvature="0" />
  </g>
  <g
     id="g80"
     transform="translate(-4.5,-2.4999997)" />
  <path
     style="font-size:medium;font-style:normal;font-variant:normal;font-weight:normal;font-stretch:normal;text-indent:0;text-align:start;text-decoration:none;line-height:normal;letter-spacing:normal;word-spacing:normal;text-transform:none;direction:ltr;block-progression:tb;writing-mode:lr-tb;text-anchor:start;baseline-shift:baseline;color:#000000;fill:#0197fd;fill-opacity:1;stroke:none;stroke-width:2.07899737;marker:none;visibility:visible;display:inline;overflow:visible;enable-background:accumulate;font-family:Sans;-inkscape-font-specification:Sans"
     d="m 485.5,96.21875 c -0.82847,0 -1.54355,0.429177 -1.90625,1.0625 l -96.28125,4.5625 c -0.39121,-0.51327 -1.01969,-0.875 -1.75,-0.875 -0.84909,0 -1.58414,0.46576 -1.9375,1.125 l -96.3125,7.78125 c -0.39457,-0.48236 -1.01463,-0.78125 -1.71875,-0.78125 -0.81267,0 -1.50595,0.41764 -1.875,1.03125 l -46.34375,2.4375 c -0.39132,-0.51242 -1.02041,-0.84375 -1.75,-0.84375 -0.82847,0 -1.54355,0.42918 -1.90625,1.0625 l -46.3125,2.8125 c -0.3915,-0.51109 -1.02152,-0.84375 -1.75,-0.84375 -0.86856,0 -1.62532,0.47236 -1.96875,1.15625 L 137.375,120.375 c -0.39524,-0.47316 -1.02251,-0.78125 -1.71875,-0.78125 -1.19355,0 -2.15625,0.89543 -2.15625,2 0,1.10457 0.9627,2 2.15625,2 0.86856,0 1.62532,-0.47236 1.96875,-1.15625 l 46.3125,-4.46875 c 0.39524,0.47317 1.02251,0.78125 1.71875,0.78125 0.83149,0 1.54484,-0.42538 1.90625,-1.0625 l 46.3125,-2.8125 c 0.39267,0.50163 1.0295,0.84375 1.75,0.84375 0.82407,0 1.54171,-0.43467 1.90625,-1.0625 l 46.3125,-2.4375 c 0.39132,0.51242 1.02041,0.875 1.75,0.875 0.83812,0 1.54777,-0.47957 1.90625,-1.125 l 96.3125,-7.8125 c 0.39342,0.49472 1.03535,0.8125 1.75,0.8125 0.81534,0 1.50698,-0.41431 1.875,-1.03125 l 96.28125,-4.593751 c 0.38837,0.532 1.03528,0.875001 1.78125,0.875001 1.19355,0 2.15625,-0.895431 2.15625,-2 0,-1.104571 -0.9627,-2 -2.15625,-2 z"
     id="path86"
     inkscape:connector-curvature="0" />
  <path
     style="font-size:medium;font-style:normal;font-variant:normal;font-weight:normal;font-stretch:normal;text-indent:0;text-align:start;text-decoration:none;line-height:normal;letter-spacing:normal;word-spacing:normal;text-transform:none;direction:ltr;block-progression:tb;writing-mode:lr-tb;text-anchor:start;baseline-shift:baseline;color:#000000;fill:#d40000;fill-opacity:1;stroke:none;stroke-width:2.07899737;marker:none;visibility:visible;display:inline;overflow:visible;enable-background:accumulate;font-family:Sans;-inkscape-font-specification:Sans"
     d="m 485.5,108.75 c -0.82847,0 -1.54355,0.42918 -1.90625,1.0625 l -96.25,4.0625 c -0.38837,-0.532 -1.03528,-0.90625 -1.78125,-0.90625 -0.84195,0 -1.58077,0.47476 -1.9375,1.125 l -96.3125,8.59375 c -0.39457,-0.48236 -1.01463,-0.8125 -1.71875,-0.8125 -0.83408,0 -1.54597,0.45339 -1.90625,1.09375 l -46.34375,3.375 c -0.39359,-0.49304 -1.00553,-0.8125 -1.71875,-0.8125 -0.84426,0 -1.58184,0.44059 -1.9375,1.09375 l -46.3125,4.0625 c -0.39457,-0.48236 -1.01463,-0.8125 -1.71875,-0.8125 -0.8096,0 -1.53605,0.42146 -1.90625,1.03125 l -46.28125,1.78125 c -0.38837,-0.532 -1.06653,-0.90625 -1.8125,-0.90625 -1.19355,0 -2.15625,0.89543 -2.15625,2 0,1.10457 0.9627,2 2.15625,2 0.79919,0 1.50108,-0.4031 1.875,-1 L 183.84375,133 c 0.38837,0.532 1.06653,0.875 1.8125,0.875 0.84195,0 1.54952,-0.4435 1.90625,-1.09375 l 46.34375,-4.0625 c 0.39457,0.48236 1.01463,0.8125 1.71875,0.8125 0.82847,0 1.54355,-0.46043 1.90625,-1.09375 l 46.34375,-3.375 c 0.39359,0.49304 1.00553,0.8125 1.71875,0.8125 0.85392,0 1.5865,-0.45966 1.9375,-1.125 l 96.3125,-8.5625 c 0.39502,0.47637 1.01976,0.78125 1.71875,0.78125 0.79919,0 1.46983,-0.4031 1.84375,-1 l 96.3125,-4.125 c 0.3863,0.54364 1.02563,0.90625 1.78125,0.90625 1.19355,0 2.15625,-0.89543 2.15625,-2 0,-1.10457 -0.9627,-2 -2.15625,-2 z"
     id="path88"
     inkscape:connector-curvature="0" />
  <path
     style="font-size:medium;font-style:normal;font-variant:normal;font-weight:normal;font-stretch:normal;text-indent:0;text-align:start;text-decoration:none;line-height:normal;letter-spacing:normal;word-spacing:normal;text-transform:none;direction:ltr;block-progression:tb;writing-mode:lr-tb;text-anchor:start;baseline-shift:baseline;color:#000000;fill:#013397;fill-opacity:1;stroke:none;stroke-width:2.07899737;marker:none;visibility:visible;display:inline;overflow:visible;enable-background:accumulate;font-family:Sans;-inkscape-font-specification:Sans"
     d="m 135.65625,159.59375 c -1.19355,0 -2.15625,0.89543 -2.15625,2 0,1.10457 0.9627,2 2.15625,2 0.71281,0 1.35636,-0.31994 1.75,-0.8125 l 46.28125,4.15625 c 0.3489,0.67064 1.11065,1.125 1.96875,1.125 0.74597,0 1.39288,-0.343 1.78125,-0.875 l 46.28125,2.78125 c 0.35848,0.64543 1.06813,1.09375 1.90625,1.09375 0.74597,0 1.39288,-0.343 1.78125,-0.875 l 46.28125,2.28125 c 0.3627,0.63332 1.07779,1.0625 1.90625,1.0625 0.72848,0 1.3585,-0.33266 1.75,-0.84375 L 383.625,180 c 0.3614,0.63712 1.10601,1.0625 1.9375,1.0625 0.73031,0 1.35879,-0.33048 1.75,-0.84375 l 96.28125,4.3125 c 0.3627,0.63332 1.07779,1.0625 1.90625,1.0625 1.19355,0 2.15625,-0.89543 2.15625,-2 0,-1.10457 -0.9627,-2 -2.15625,-2 -0.74597,0 -1.39288,0.343 -1.78125,0.875 L 387.4375,178.125 c -0.36596,-0.62345 -1.05443,-1.0625 -1.875,-1.0625 -0.71465,0 -1.35658,0.34903 -1.75,0.84375 L 287.53125,170.625 c -0.35566,-0.65316 -1.09324,-1.09375 -1.9375,-1.09375 -0.74597,0 -1.39288,0.343 -1.78125,0.875 L 237.53125,168.125 c -0.3627,-0.63332 -1.07779,-1.0625 -1.90625,-1.0625 -0.73671,0 -1.39113,0.32284 -1.78125,0.84375 L 187.5625,165.125 c -0.36141,-0.63712 -1.07476,-1.0625 -1.90625,-1.0625 -0.71281,0 -1.35636,0.31993 -1.75,0.8125 L 137.625,160.71875 c -0.3489,-0.67064 -1.11065,-1.125 -1.96875,-1.125 z"
     id="path90"
     inkscape:connector-curvature="0" />
  <path
     style="font-size:medium;font-style:normal;font-variant:normal;font-weight:normal;font-stretch:normal;text-indent:0;text-align:start;text-decoration:none;line-height:normal;letter-spacing:normal;word-spacing:normal;text-transform:none;direction:ltr;block-progression:tb;writing-mode:lr-tb;text-anchor:start;baseline-shift:baseline;color:#000000;fill:#980101;fill-opacity:1;stroke:none;stroke-width:2.07899737;marker:none;visibility:visible;display:inline;overflow:visible;enable-background:accumulate;font-family:Sans;-inkscape-font-specification:Sans"
     d="m 135.65625,171.3125 c -1.19355,0 -2.15625,0.89543 -2.15625,2 0,1.10457 0.9627,2 2.15625,2 0.74597,0 1.42413,-0.343 1.8125,-0.875 l 46.28125,1.46875 c 0.36802,0.61694 1.09091,1.03125 1.90625,1.03125 0.71099,0 1.3249,-0.32209 1.71875,-0.8125 l 46.3125,4.0625 c 0.351,0.66534 1.08359,1.125 1.9375,1.125 0.72848,0 1.3585,-0.33266 1.75,-0.84375 l 46.3125,2.96875 c 0.3627,0.63332 1.07779,1.0625 1.90625,1.0625 0.70412,0 1.32418,-0.29889 1.71875,-0.78125 l 96.3125,8.09375 c 0.35175,0.66343 1.0851,1.125 1.9375,1.125 0.75642,0 1.39513,-0.36165 1.78125,-0.90625 l 96.28125,3.78125 c 0.37258,0.60163 1.07199,1 1.875,1 1.19355,0 2.15625,-0.89543 2.15625,-2 0,-1.10457 -0.9627,-2 -2.15625,-2 -0.74597,0 -1.39288,0.37425 -1.78125,0.90625 l -96.28125,-3.75 c -0.36802,-0.61694 -1.05966,-1.03125 -1.875,-1.03125 -0.71281,0 -1.35636,0.31993 -1.75,0.8125 L 287.5,181.625 c -0.35848,-0.64543 -1.06813,-1.125 -1.90625,-1.125 -0.7205,0 -1.35733,0.34212 -1.75,0.84375 l -46.3125,-2.9375 c -0.35848,-0.64543 -1.06813,-1.09375 -1.90625,-1.09375 -0.71099,0 -1.3249,0.32209 -1.71875,0.8125 l -46.34375,-4.0625 c -0.35175,-0.66343 -1.05385,-1.125 -1.90625,-1.125 -0.76212,0 -1.45898,0.35474 -1.84375,0.90625 l -46.28125,-1.5 c -0.37259,-0.60163 -1.07199,-1.03125 -1.875,-1.03125 z"
     id="path92"
     inkscape:connector-curvature="0" />
  <g
     id="g194"
     transform="translate(-4.5,-2.4999997)">
    <text
       x="103"
       y="303.70001"
       font-size="12"
       id="text196"
       style="font-size:12px;text-anchor:end;fill:#444444;stroke:none;font-family:Arial">0</text>
  </g>
  <g
     id="g198"
     transform="translate(-4.5,-2.4999997)">
    <text
       x="103"
       y="246.7"
       font-size="12"
       id="text200"
       style="font-size:12px;text-anchor:end;fill:#444444;stroke:none;font-family:Arial">125000</text>
  </g>
  <g
     id="g202"
     transform="translate(-4.5,-2.4999997)">
    <text
       x="103"
       y="189.7"
       font-size="12"
       id="text204"
       style="font-size:12px;text-anchor:end;fill:#444444;stroke:none;font-family:Arial">250000</text>
  </g>
  <g
     id="g206"
     transform="translate(-4.5,-2.4999997)">
    <text
       x="103"
       y="132.7"
       font-size="12"
       id="text208"
       style="font-size:12px;text-anchor:end;fill:#444444;stroke:none;font-family:Arial">375000</text>
  </g>
  <g
     id="g210"
     transform="translate(-4.5,-2.4999997)">
    <text
       x="103"
       y="75.699997"
       font-size="12"
       id="text212"
       style="font-size:12px;text-anchor:end;fill:#444444;stroke:none;font-family:Arial">500000</text>
  </g>
  <g
     id="g214"
     transform="translate(10.5,25.5)" />
  <text
     x="160.5"
     y="326.5"
     font-size="12"
     id="text3375"
     style="font-size:12px;text-anchor:middle;fill:#222222;stroke:none;font-family:Arial">Day 0</text>
  <text
     x="135.5"
     y="311.5"
     font-size="12"
     id="text3377"
     style="font-size:12px;text-anchor:middle;fill:#222222;stroke:none;font-family:Arial">am</text>
  <text
     x="185.5"
     y="311.5"
     font-size="12"
     id="text3379"
     style="font-size:12px;text-anchor:middle;fill:#222222;stroke:none;font-family:Arial">pm</text>
  <text
     x="260.5"
     y="326.5"
     font-size="12"
     id="text3385"
     style="font-size:12px;text-anchor:middle;fill:#222222;stroke:none;font-family:Arial">Day 1</text>
  <text
     x="235.5"
     y="311.5"
     font-size="12"
     id="text3387"
     style="font-size:12px;text-anchor:middle;fill:#222222;stroke:none;font-family:Arial">am</text>
  <text
     x="285.5"
     y="311.5"
     font-size="12"
     id="text3389"
     style="font-size:12px;text-anchor:middle;fill:#222222;stroke:none;font-family:Arial">pm</text>
  <text
     x="360.5"
     y="326.5"
     font-size="12"
     id="text3395"
     style="font-size:12px;text-anchor:middle;fill:#222222;stroke:none;font-family:Arial">Day 2</text>
  <text
     x="335.5"
     y="311.5"
     font-size="12"
     id="text3397"
     style="font-size:12px;text-anchor:middle;fill:#222222;stroke:none;font-family:Arial">am</text>
  <text
     x="385.5"
     y="311.5"
     font-size="12"
     id="text3399"
     style="font-size:12px;text-anchor:middle;fill:#222222;stroke:none;font-family:Arial">pm</text>
  <text
     style="font-size:12px;text-anchor:middle;fill:#222222;stroke:none;font-family:Arial"
     id="text148"
     font-size="12"
     y="326.5"
     x="460.5">Day 3</text>
  <text
     style="font-size:12px;text-anchor:middle;fill:#222222;stroke:none;font-family:Arial"
     id="text150"
     font-size="12"
     y="311.5"
     x="435.5">am</text>
  <text
     style="font-size:12px;text-anchor:middle;fill:#222222;stroke:none;font-family:Arial"
     id="text156"
     font-size="12"
     y="311.5"
     x="485.5">pm</text>
  <g
     id="g3428"
     transform="translate(10.5,25.5)">
    <g
       id="g3417">
      <path
         style="fill:none;stroke:#000000;stroke-width:1px;stroke-linecap:butt;stroke-linejoin:miter;stroke-opacity:1"
         d="m 100,271 400,0"
         id="path3351"
         inkscape:connector-curvature="0" />
      <path
         style="fill:none;stroke:#000000;stroke-width:1px;stroke-linecap:butt;stroke-linejoin:miter;stroke-opacity:1"
         d="m 125,271 0,5"
         id="path3401"
         inkscape:connector-curvature="0" />
      <path
         style="fill:none;stroke:#000000;stroke-width:1px;stroke-linecap:butt;stroke-linejoin:miter;stroke-opacity:1"
         d="m 175,271 0,5"
         id="path3403"
         inkscape:connector-curvature="0" />
      <path
         style="fill:none;stroke:#000000;stroke-width:1px;stroke-linecap:butt;stroke-linejoin:miter;stroke-opacity:1"
         d="m 225,271 0,5"
         id="path3405"
         inkscape:connector-curvature="0" />
      <path
         style="fill:none;stroke:#000000;stroke-width:1px;stroke-linecap:butt;stroke-linejoin:miter;stroke-opacity:1"
         d="m 275,271 0,5"
         id="path3407"
         inkscape:connector-curvature="0" />
      <path
         style="fill:none;stroke:#000000;stroke-width:1px;stroke-linecap:butt;stroke-linejoin:miter;stroke-opacity:1"
         d="m 325,271 0,5"
         id="path3409"
         inkscape:connector-curvature="0" />
      <path
         style="fill:none;stroke:#000000;stroke-width:1px;stroke-linecap:butt;stroke-linejoin:miter;stroke-opacity:1"
         d="m 375,271 0,5"
         id="path3411"
         inkscape:connector-curvature="0" />
      <path
         style="fill:none;stroke:#000000;stroke-width:1px;stroke-linecap:butt;stroke-linejoin:miter;stroke-opacity:1"
         d="m 425,271 0,5"
         id="path3413"
         inkscape:connector-curvature="0" />
      <path
         style="fill:none;stroke:#000000;stroke-width:1px;stroke-linecap:butt;stroke-linejoin:miter;stroke-opacity:1"
         d="m 475,271 0,5"
         id="path3415"
         inkscape:connector-curvature="0" />
    </g>
  </g>
  <text
     xml:space="preserve"
     style="font-size:10px;font-style:normal;font-variant:normal;font-weight:normal;font-stretch:normal;line-height:125%;letter-spacing:0px;word-spacing:0px;fill:#000000;fill-opacity:1;stroke:none;font-family:Sans;-inkscape-font-specification:Sans"
     x="495.5"
     y="101.5"
     id="text4402"
     sodipodi:linespacing="125%"><tspan
       sodipodi:role="line"
       id="tspan4404"
       x="495.5"
       y="101.5"
       style="font-style:normal;font-variant:normal;font-weight:normal;font-stretch:normal;font-family:Arial;-inkscape-font-specification:Arial">2011 </tspan><tspan
       sodipodi:role="line"
       x="495.5"
       y="114"
       id="tspan4406"
       style="font-style:normal;font-variant:normal;font-weight:normal;font-stretch:normal;font-family:Arial;-inkscape-font-specification:Arial">2012</tspan></text>
  <text
     sodipodi:linespacing="125%"
     id="text4408"
     y="186.5"
     x="495.5"
     style="font-size:10px;font-style:normal;font-variant:normal;font-weight:normal;font-stretch:normal;line-height:125%;letter-spacing:0px;word-spacing:0px;fill:#000000;fill-opacity:1;stroke:none;font-family:Sans;-inkscape-font-specification:Sans"
     xml:space="preserve"><tspan
       style="font-style:normal;font-variant:normal;font-weight:normal;font-stretch:normal;font-family:Arial;-inkscape-font-specification:Arial"
       y="186.5"
       x="495.5"
       id="tspan4410"
       sodipodi:role="line">2011 </tspan><tspan
       style="font-style:normal;font-variant:normal;font-weight:normal;font-stretch:normal;font-family:Arial;-inkscape-font-specification:Arial"
       id="tspan4412"
       y="199"
       x="495.5"
       sodipodi:role="line">2012</tspan></text>
  <path
     style="fill:#ffffff;fill-opacity:1;stroke:#000000;stroke-width:1;stroke-linejoin:round;stroke-miterlimit:4;stroke-dashoffset:0"
     d="m 380,196 -11.25,15 -63.75,0 c -5.54,0 -10,4.46 -10,10 l 0,30 c 0,5.54 4.46,10 10,10 l 80,0 c 5.54,0 10,-4.46 10,-10 l 0,-30 c 0,-5.54 -4.46,-10 -10,-10 l -5,0 0,-15 z"
     id="rect4478"
     inkscape:connector-curvature="0" />
  <text
     xml:space="preserve"
     style="font-size:10px;font-style:normal;font-weight:normal;line-height:125%;letter-spacing:0px;word-spacing:0px;fill:#000000;fill-opacity:1;stroke:none;font-family:Sans"
     x="304.34082"
     y="233.59766"
     id="text4420"
     sodipodi:linespacing="125%"><tspan
       sodipodi:role="line"
       id="tspan4422"
       x="304.34082"
       y="233.59766">Students without</tspan><tspan
       sodipodi:role="line"
       x="304.34082"
       y="246.09766"
       id="tspan4424">places</tspan></text>
  <path
     inkscape:connector-curvature="0"
     id="path4488"
     d="M 311.25,96 300,81 236.25,81 c -5.54,0 -10,-4.46 -10,-10 l 0,-30 c 0,-5.54 4.46,-10 10,-10 l 80,0 c 5.54,0 10,4.46 10,10 l 0,30 c 0,5.54 -4.46,10 -10,10 l -5,0 0,15 z"
     style="fill:#ffffff;fill-opacity:1;stroke:#000000;stroke-width:1;stroke-linejoin:round;stroke-miterlimit:4;stroke-dashoffset:0" />
  <text
     xml:space="preserve"
     style="font-size:10px;font-style:normal;font-weight:normal;text-align:start;line-height:125%;letter-spacing:0px;word-spacing:0px;text-anchor:start;fill:#000000;fill-opacity:1;stroke:none;font-family:Sans"
     x="240"
     y="51"
     id="text4414"
     sodipodi:linespacing="125%"><tspan
       sodipodi:role="line"
       id="tspan4416"
       x="240"
       y="51">Students with</tspan><tspan
       sodipodi:role="line"
       x="240"
       y="63.5"
       id="tspan4418">Places</tspan></text>
</svg>
